<svg xmlns="http://www.w3.org/2000/svg" xmlns:xlink="http://www.w3.org/1999/xlink" width="500" zoomAndPan="magnify" viewBox="0 0 375 374.999991" height="500" preserveAspectRatio="xMidYMid meet" version="1.0"><defs><clipPath id="id1"><path d="M 106 180 L 152 180 L 152 269.671875 L 106 269.671875 Z M 106 180 " clip-rule="nonzero"/></clipPath><clipPath id="id2"><path d="M 223 180 L 269 180 L 269 269.671875 L 223 269.671875 Z M 223 180 " clip-rule="nonzero"/></clipPath><clipPath id="id3"><path d="M 247 194 L 281.996094 194 L 281.996094 263 L 247 263 Z M 247 194 " clip-rule="nonzero"/></clipPath><clipPath id="id4"><path d="M 107 93.421875 L 268 93.421875 L 268 200 L 107 200 Z M 107 93.421875 " clip-rule="nonzero"/></clipPath><clipPath id="id5"><path d="M 117.789062 134.382812 L 265.164062 134.382812 L 265.164062 244.039062 L 117.789062 244.039062 Z M 117.789062 134.382812 " clip-rule="nonzero"/></clipPath><clipPath id="id6"><path d="M 264.925781 201.96875 L 223.011719 200.820312 L 254.710938 198.75 L 209.503906 197.507812 L 248.109375 194.988281 L 219.328125 194.195312 L 263.28125 191.328125 C 260.839844 180.78125 256.125 171.101562 249.675781 162.832031 L 228.59375 162.253906 L 248.179688 160.972656 C 247.859375 160.589844 247.53125 160.203125 247.203125 159.824219 L 215.085938 158.941406 L 244.628906 157.011719 C 244.351562 156.722656 244.070312 156.4375 243.785156 156.148438 L 224.910156 155.632812 L 242.101562 154.507812 C 228.90625 142.0625 211.097656 134.429688 191.503906 134.429688 C 187.972656 134.429688 184.496094 134.675781 181.09375 135.15625 C 172.796875 136.328125 164.941406 138.878906 157.773438 142.570312 C 157.445312 142.738281 157.113281 142.914062 156.789062 143.089844 C 147.007812 148.3125 138.546875 155.671875 132.035156 164.546875 C 123.113281 176.703125 117.84375 191.695312 117.84375 207.917969 C 117.84375 211.421875 118.089844 214.867188 118.566406 218.242188 C 119.808594 227.0625 122.621094 235.382812 126.71875 242.910156 C 126.921875 243.289062 127.128906 243.664062 127.34375 244.035156 C 145.617188 240.441406 167.710938 238.339844 191.503906 238.339844 C 215.300781 238.339844 237.390625 240.441406 255.667969 244.035156 C 260.101562 236.214844 263.140625 227.503906 264.445312 218.242188 C 264.921875 214.867188 265.164062 211.421875 265.164062 207.917969 C 265.164062 205.914062 265.085938 203.933594 264.925781 201.96875 Z M 264.925781 201.96875 " clip-rule="nonzero"/></clipPath><clipPath id="id7"><path d="M 264.925781 201.96875 L 223.011719 200.820312 L 254.707031 198.75 L 209.503906 197.507812 L 248.109375 194.988281 L 219.328125 194.199219 L 263.28125 191.328125 C 260.839844 180.78125 256.125 171.101562 249.675781 162.832031 L 228.59375 162.253906 L 248.179688 160.972656 C 247.859375 160.589844 247.53125 160.203125 247.203125 159.824219 L 215.085938 158.941406 L 244.628906 157.015625 C 244.351562 156.722656 244.066406 156.4375 243.785156 156.148438 L 224.910156 155.632812 L 242.101562 154.507812 C 228.90625 142.0625 211.097656 134.429688 191.503906 134.429688 C 187.972656 134.429688 184.496094 134.679688 181.09375 135.15625 C 172.796875 136.328125 164.941406 138.878906 157.773438 142.570312 C 157.445312 142.738281 157.113281 142.914062 156.789062 143.089844 C 147.007812 148.3125 138.546875 155.675781 132.035156 164.546875 C 123.113281 176.703125 117.84375 191.695312 117.84375 207.917969 C 117.84375 211.421875 118.089844 214.867188 118.566406 218.242188 C 119.808594 227.0625 122.621094 235.382812 126.71875 242.910156 C 126.921875 243.289062 127.128906 243.664062 127.34375 244.035156 C 145.617188 240.441406 167.710938 238.339844 191.503906 238.339844 C 215.300781 238.339844 237.390625 240.441406 255.667969 244.035156 C 260.101562 236.214844 263.136719 227.503906 264.445312 218.242188 C 264.921875 214.867188 265.164062 211.421875 265.164062 207.917969 C 265.164062 205.914062 265.082031 203.933594 264.925781 201.96875 " clip-rule="nonzero"/></clipPath><clipPath id="id8"><path d="M 250.785156 287.660156 L 297.773438 145.128906 L 132.226562 90.808594 L 85.238281 233.335938 Z M 250.785156 287.660156 " clip-rule="nonzero"/></clipPath><radialGradient gradientTransform="matrix(-0.951045, -0.312071, 0.312798, -0.948834, 262.763368, 212.264175)" gradientUnits="userSpaceOnUse" r="141.974317" cx="0" id="id9" cy="0" fx="0" fy="0"><stop stop-opacity="1" stop-color="rgb(98.399353%, 75.299072%, 3.09906%)" offset="0"/><stop stop-opacity="1" stop-color="rgb(98.399353%, 75.205994%, 3.190613%)" offset="0.0625"/><stop stop-opacity="1" stop-color="rgb(98.399353%, 75.019836%, 3.378296%)" offset="0.0898438"/><stop stop-opacity="1" stop-color="rgb(98.399353%, 74.906921%, 3.485107%)" offset="0.117188"/><stop stop-opacity="1" stop-color="rgb(98.399353%, 74.694824%, 3.49884%)" offset="0.121094"/><stop stop-opacity="1" stop-color="rgb(98.399353%, 74.304199%, 3.49884%)" offset="0.125"/><stop stop-opacity="1" stop-color="rgb(98.208618%, 73.913574%, 3.49884%)" offset="0.128906"/><stop stop-opacity="1" stop-color="rgb(98.008728%, 73.522949%, 3.49884%)" offset="0.132812"/><stop stop-opacity="1" stop-color="rgb(97.999573%, 73.312378%, 3.49884%)" offset="0.136719"/><stop stop-opacity="1" stop-color="rgb(97.999573%, 73.121643%, 3.49884%)" offset="0.140625"/><stop stop-opacity="1" stop-color="rgb(97.999573%, 72.706604%, 3.69873%)" offset="0.144531"/><stop stop-opacity="1" stop-color="rgb(97.999573%, 72.315979%, 3.898621%)" offset="0.148438"/><stop stop-opacity="1" stop-color="rgb(97.999573%, 71.969604%, 3.898621%)" offset="0.152344"/><stop stop-opacity="1" stop-color="rgb(97.999573%, 71.578979%, 3.898621%)" offset="0.15625"/><stop stop-opacity="1" stop-color="rgb(97.999573%, 71.188354%, 3.898621%)" offset="0.160156"/><stop stop-opacity="1" stop-color="rgb(97.999573%, 70.797729%, 3.898621%)" offset="0.164062"/><stop stop-opacity="1" stop-color="rgb(97.999573%, 70.407104%, 4.092407%)" offset="0.167969"/><stop stop-opacity="1" stop-color="rgb(97.999573%, 70.016479%, 4.292297%)" offset="0.171875"/><stop stop-opacity="1" stop-color="rgb(97.999573%, 69.625854%, 4.299927%)" offset="0.175781"/><stop stop-opacity="1" stop-color="rgb(97.819519%, 69.235229%, 4.299927%)" offset="0.179688"/><stop stop-opacity="1" stop-color="rgb(97.619629%, 68.844604%, 4.299927%)" offset="0.183594"/><stop stop-opacity="1" stop-color="rgb(97.599792%, 68.403625%, 4.319763%)" offset="0.1875"/><stop stop-opacity="1" stop-color="rgb(97.599792%, 67.967224%, 4.519653%)" offset="0.191406"/><stop stop-opacity="1" stop-color="rgb(97.599792%, 67.626953%, 4.699707%)" offset="0.195312"/><stop stop-opacity="1" stop-color="rgb(97.599792%, 67.282104%, 4.699707%)" offset="0.199219"/><stop stop-opacity="1" stop-color="rgb(97.599792%, 66.891479%, 4.699707%)" offset="0.203125"/><stop stop-opacity="1" stop-color="rgb(97.599792%, 66.500854%, 4.699707%)" offset="0.207031"/><stop stop-opacity="1" stop-color="rgb(97.599792%, 66.110229%, 4.699707%)" offset="0.210938"/><stop stop-opacity="1" stop-color="rgb(97.599792%, 65.719604%, 4.885864%)" offset="0.214844"/><stop stop-opacity="1" stop-color="rgb(97.599792%, 65.328979%, 5.085754%)" offset="0.21875"/><stop stop-opacity="1" stop-color="rgb(97.599792%, 64.938354%, 5.099487%)" offset="0.222656"/><stop stop-opacity="1" stop-color="rgb(97.44873%, 64.497375%, 5.099487%)" offset="0.226562"/><stop stop-opacity="1" stop-color="rgb(97.299194%, 64.056396%, 5.099487%)" offset="0.230469"/><stop stop-opacity="1" stop-color="rgb(97.299194%, 63.679504%, 5.11322%)" offset="0.234375"/><stop stop-opacity="1" stop-color="rgb(97.299194%, 63.490295%, 5.31311%)" offset="0.238281"/><stop stop-opacity="1" stop-color="rgb(97.299194%, 63.285828%, 5.499268%)" offset="0.242188"/><stop stop-opacity="1" stop-color="rgb(97.299194%, 62.895203%, 5.499268%)" offset="0.246094"/><stop stop-opacity="1" stop-color="rgb(97.299194%, 62.553406%, 5.499268%)" offset="0.25"/><stop stop-opacity="1" stop-color="rgb(97.299194%, 62.211609%, 5.499268%)" offset="0.253906"/><stop stop-opacity="1" stop-color="rgb(97.299194%, 61.82251%, 5.499268%)" offset="0.257812"/><stop stop-opacity="1" stop-color="rgb(97.299194%, 61.431885%, 5.680847%)" offset="0.261719"/><stop stop-opacity="1" stop-color="rgb(97.299194%, 61.04126%, 5.880737%)" offset="0.265625"/><stop stop-opacity="1" stop-color="rgb(97.299194%, 60.600281%, 5.899048%)" offset="0.269531"/><stop stop-opacity="1" stop-color="rgb(97.28241%, 60.160828%, 5.899048%)" offset="0.273438"/><stop stop-opacity="1" stop-color="rgb(97.08252%, 59.770203%, 5.899048%)" offset="0.277344"/><stop stop-opacity="1" stop-color="rgb(96.899414%, 59.379578%, 5.899048%)" offset="0.28125"/><stop stop-opacity="1" stop-color="rgb(96.899414%, 58.988953%, 5.9021%)" offset="0.285156"/><stop stop-opacity="1" stop-color="rgb(96.899414%, 58.598328%, 6.100464%)" offset="0.289062"/><stop stop-opacity="1" stop-color="rgb(96.899414%, 58.207703%, 6.297302%)" offset="0.292969"/><stop stop-opacity="1" stop-color="rgb(96.899414%, 57.817078%, 6.298828%)" offset="0.296875"/><stop stop-opacity="1" stop-color="rgb(96.899414%, 57.472229%, 6.298828%)" offset="0.300781"/><stop stop-opacity="1" stop-color="rgb(96.899414%, 57.130432%, 6.298828%)" offset="0.304688"/><stop stop-opacity="1" stop-color="rgb(96.899414%, 56.744385%, 6.298828%)" offset="0.308594"/><stop stop-opacity="1" stop-color="rgb(96.899414%, 56.303406%, 6.498718%)" offset="0.3125"/><stop stop-opacity="1" stop-color="rgb(96.899414%, 55.863953%, 6.698608%)" offset="0.316406"/><stop stop-opacity="1" stop-color="rgb(96.888733%, 55.473328%, 6.698608%)" offset="0.320312"/><stop stop-opacity="1" stop-color="rgb(96.688843%, 55.082703%, 6.698608%)" offset="0.324219"/><stop stop-opacity="1" stop-color="rgb(96.499634%, 54.692078%, 6.698608%)" offset="0.328125"/><stop stop-opacity="1" stop-color="rgb(96.499634%, 54.301453%, 6.698608%)" offset="0.332031"/><stop stop-opacity="1" stop-color="rgb(96.499634%, 54.101562%, 6.890869%)" offset="0.335938"/><stop stop-opacity="1" stop-color="rgb(96.499634%, 53.723145%, 7.090759%)" offset="0.339844"/><stop stop-opacity="1" stop-color="rgb(96.499634%, 53.141785%, 7.099915%)" offset="0.34375"/><stop stop-opacity="1" stop-color="rgb(96.499634%, 52.738953%, 7.099915%)" offset="0.347656"/><stop stop-opacity="1" stop-color="rgb(96.499634%, 52.348328%, 7.122803%)" offset="0.351562"/><stop stop-opacity="1" stop-color="rgb(96.499634%, 51.957703%, 7.322693%)" offset="0.355469"/><stop stop-opacity="1" stop-color="rgb(96.499634%, 51.567078%, 7.499695%)" offset="0.359375"/><stop stop-opacity="1" stop-color="rgb(96.488953%, 51.176453%, 7.499695%)" offset="0.363281"/><stop stop-opacity="1" stop-color="rgb(96.289062%, 50.785828%, 7.499695%)" offset="0.367188"/><stop stop-opacity="1" stop-color="rgb(96.099854%, 50.395203%, 7.499695%)" offset="0.371094"/><stop stop-opacity="1" stop-color="rgb(96.099854%, 50.004578%, 7.499695%)" offset="0.375"/><stop stop-opacity="1" stop-color="rgb(96.099854%, 49.613953%, 7.499695%)" offset="0.378906"/><stop stop-opacity="1" stop-color="rgb(96.099854%, 49.223328%, 7.63855%)" offset="0.382812"/><stop stop-opacity="1" stop-color="rgb(96.099854%, 48.832703%, 7.788086%)" offset="0.386719"/><stop stop-opacity="1" stop-color="rgb(96.099854%, 48.442078%, 7.798767%)" offset="0.390625"/><stop stop-opacity="1" stop-color="rgb(96.099854%, 48.005676%, 7.798767%)" offset="0.394531"/><stop stop-opacity="1" stop-color="rgb(96.099854%, 47.615051%, 7.798767%)" offset="0.398438"/><stop stop-opacity="1" stop-color="rgb(96.099854%, 47.270203%, 7.810974%)" offset="0.402344"/><stop stop-opacity="1" stop-color="rgb(96.099854%, 46.879578%, 8.010864%)" offset="0.40625"/><stop stop-opacity="1" stop-color="rgb(96.099854%, 46.488953%, 8.198547%)" offset="0.410156"/><stop stop-opacity="1" stop-color="rgb(96.099854%, 46.098328%, 8.198547%)" offset="0.414062"/><stop stop-opacity="1" stop-color="rgb(95.906067%, 45.901489%, 8.198547%)" offset="0.417969"/><stop stop-opacity="1" stop-color="rgb(95.704651%, 45.710754%, 8.198547%)" offset="0.421875"/><stop stop-opacity="1" stop-color="rgb(95.698547%, 45.326233%, 8.198547%)" offset="0.425781"/><stop stop-opacity="1" stop-color="rgb(95.698547%, 44.935608%, 8.378601%)" offset="0.429688"/><stop stop-opacity="1" stop-color="rgb(95.698547%, 44.544983%, 8.578491%)" offset="0.433594"/><stop stop-opacity="1" stop-color="rgb(95.698547%, 44.104004%, 8.599854%)" offset="0.4375"/><stop stop-opacity="1" stop-color="rgb(95.698547%, 43.663025%, 8.599854%)" offset="0.441406"/><stop stop-opacity="1" stop-color="rgb(95.698547%, 43.2724%, 8.599854%)" offset="0.445312"/><stop stop-opacity="1" stop-color="rgb(95.698547%, 42.883301%, 8.605957%)" offset="0.449219"/><stop stop-opacity="1" stop-color="rgb(95.698547%, 42.54303%, 8.805847%)" offset="0.453125"/><stop stop-opacity="1" stop-color="rgb(95.698547%, 42.201233%, 8.999634%)" offset="0.457031"/><stop stop-opacity="1" stop-color="rgb(95.698547%, 41.810608%, 8.999634%)" offset="0.460938"/><stop stop-opacity="1" stop-color="rgb(95.510864%, 41.419983%, 8.999634%)" offset="0.464844"/><stop stop-opacity="1" stop-color="rgb(95.310974%, 41.029358%, 8.999634%)" offset="0.46875"/><stop stop-opacity="1" stop-color="rgb(95.298767%, 40.638733%, 8.999634%)" offset="0.472656"/><stop stop-opacity="1" stop-color="rgb(95.298767%, 40.197754%, 9.199524%)" offset="0.476562"/><stop stop-opacity="1" stop-color="rgb(95.298767%, 39.756775%, 9.399414%)" offset="0.480469"/><stop stop-opacity="1" stop-color="rgb(95.298767%, 39.36615%, 9.399414%)" offset="0.484375"/><stop stop-opacity="1" stop-color="rgb(95.298767%, 38.975525%, 9.399414%)" offset="0.488281"/><stop stop-opacity="1" stop-color="rgb(95.298767%, 38.5849%, 9.399414%)" offset="0.492188"/><stop stop-opacity="1" stop-color="rgb(95.298767%, 38.194275%, 9.399414%)" offset="0.496094"/><stop stop-opacity="1" stop-color="rgb(95.298767%, 37.80365%, 9.594727%)" offset="0.5"/><stop stop-opacity="1" stop-color="rgb(95.298767%, 37.460327%, 9.794617%)" offset="0.503906"/><stop stop-opacity="1" stop-color="rgb(95.298767%, 37.120056%, 9.799194%)" offset="0.507812"/><stop stop-opacity="1" stop-color="rgb(95.298767%, 36.732483%, 9.799194%)" offset="0.511719"/><stop stop-opacity="1" stop-color="rgb(95.121765%, 36.517334%, 9.799194%)" offset="0.515625"/><stop stop-opacity="1" stop-color="rgb(94.921875%, 36.276245%, 9.799194%)" offset="0.519531"/><stop stop-opacity="1" stop-color="rgb(94.898987%, 35.85968%, 9.815979%)" offset="0.523438"/><stop stop-opacity="1" stop-color="rgb(94.898987%, 35.469055%, 10.015869%)" offset="0.527344"/><stop stop-opacity="1" stop-color="rgb(94.898987%, 35.07843%, 10.198975%)" offset="0.53125"/><stop stop-opacity="1" stop-color="rgb(94.898987%, 34.687805%, 10.198975%)" offset="0.535156"/><stop stop-opacity="1" stop-color="rgb(94.898987%, 34.29718%, 10.198975%)" offset="0.539062"/><stop stop-opacity="1" stop-color="rgb(94.898987%, 33.906555%, 10.198975%)" offset="0.542969"/><stop stop-opacity="1" stop-color="rgb(94.898987%, 33.51593%, 10.198975%)" offset="0.546875"/><stop stop-opacity="1" stop-color="rgb(94.898987%, 33.125305%, 10.383606%)" offset="0.550781"/><stop stop-opacity="1" stop-color="rgb(94.898987%, 32.73468%, 10.583496%)" offset="0.554688"/><stop stop-opacity="1" stop-color="rgb(94.898987%, 32.388306%, 10.598755%)" offset="0.558594"/><stop stop-opacity="1" stop-color="rgb(94.699097%, 31.997681%, 10.598755%)" offset="0.5625"/><stop stop-opacity="1" stop-color="rgb(94.499207%, 31.562805%, 10.598755%)" offset="0.566406"/><stop stop-opacity="1" stop-color="rgb(94.499207%, 31.17218%, 10.609436%)" offset="0.570312"/><stop stop-opacity="1" stop-color="rgb(94.499207%, 30.781555%, 10.809326%)" offset="0.574219"/><stop stop-opacity="1" stop-color="rgb(94.499207%, 30.39093%, 10.998535%)" offset="0.578125"/><stop stop-opacity="1" stop-color="rgb(94.499207%, 30.000305%, 10.998535%)" offset="0.582031"/><stop stop-opacity="1" stop-color="rgb(94.499207%, 29.60968%, 10.998535%)" offset="0.585938"/><stop stop-opacity="1" stop-color="rgb(94.499207%, 29.219055%, 10.998535%)" offset="0.589844"/><stop stop-opacity="1" stop-color="rgb(94.499207%, 28.82843%, 10.998535%)" offset="0.59375"/><stop stop-opacity="1" stop-color="rgb(94.499207%, 28.437805%, 11.177063%)" offset="0.597656"/><stop stop-opacity="1" stop-color="rgb(94.499207%, 28.00293%, 11.376953%)" offset="0.601562"/><stop stop-opacity="1" stop-color="rgb(94.47937%, 27.612305%, 11.399841%)" offset="0.605469"/><stop stop-opacity="1" stop-color="rgb(94.27948%, 27.26593%, 11.399841%)" offset="0.609375"/><stop stop-opacity="1" stop-color="rgb(94.099426%, 26.875305%, 11.399841%)" offset="0.613281"/><stop stop-opacity="1" stop-color="rgb(94.099426%, 26.48468%, 11.404419%)" offset="0.617188"/><stop stop-opacity="1" stop-color="rgb(94.099426%, 26.094055%, 11.604309%)" offset="0.621094"/><stop stop-opacity="1" stop-color="rgb(94.099426%, 25.70343%, 11.799622%)" offset="0.625"/><stop stop-opacity="1" stop-color="rgb(94.099426%, 25.312805%, 11.799622%)" offset="0.628906"/><stop stop-opacity="1" stop-color="rgb(94.099426%, 24.92218%, 11.799622%)" offset="0.632812"/><stop stop-opacity="1" stop-color="rgb(94.099426%, 24.531555%, 11.799622%)" offset="0.636719"/><stop stop-opacity="1" stop-color="rgb(94.099426%, 24.14093%, 11.799622%)" offset="0.640625"/><stop stop-opacity="1" stop-color="rgb(94.099426%, 23.699951%, 11.999512%)" offset="0.644531"/><stop stop-opacity="1" stop-color="rgb(94.099426%, 23.260498%, 12.199402%)" offset="0.648438"/><stop stop-opacity="1" stop-color="rgb(94.085693%, 22.872925%, 12.199402%)" offset="0.652344"/><stop stop-opacity="1" stop-color="rgb(93.885803%, 22.531128%, 12.199402%)" offset="0.65625"/><stop stop-opacity="1" stop-color="rgb(93.699646%, 22.187805%, 12.199402%)" offset="0.660156"/><stop stop-opacity="1" stop-color="rgb(93.699646%, 21.79718%, 12.199402%)" offset="0.664062"/><stop stop-opacity="1" stop-color="rgb(93.699646%, 21.406555%, 12.34436%)" offset="0.667969"/><stop stop-opacity="1" stop-color="rgb(93.699646%, 21.01593%, 12.493896%)" offset="0.671875"/><stop stop-opacity="1" stop-color="rgb(93.699646%, 20.625305%, 12.5%)" offset="0.675781"/><stop stop-opacity="1" stop-color="rgb(93.699646%, 20.23468%, 12.5%)" offset="0.679688"/><stop stop-opacity="1" stop-color="rgb(93.699646%, 19.844055%, 12.5%)" offset="0.683594"/><stop stop-opacity="1" stop-color="rgb(93.699646%, 19.403076%, 12.519836%)" offset="0.6875"/><stop stop-opacity="1" stop-color="rgb(93.699646%, 18.968201%, 12.719727%)" offset="0.691406"/><stop stop-opacity="1" stop-color="rgb(93.693542%, 18.582153%, 12.89978%)" offset="0.699219"/><stop stop-opacity="1" stop-color="rgb(93.493652%, 18.191528%, 12.89978%)" offset="0.703125"/><stop stop-opacity="1" stop-color="rgb(93.299866%, 17.800903%, 12.89978%)" offset="0.707031"/><stop stop-opacity="1" stop-color="rgb(93.299866%, 17.457581%, 12.89978%)" offset="0.710938"/><stop stop-opacity="1" stop-color="rgb(93.299866%, 17.11731%, 13.085938%)" offset="0.714844"/><stop stop-opacity="1" stop-color="rgb(93.299866%, 16.72821%, 13.285828%)" offset="0.71875"/><stop stop-opacity="1" stop-color="rgb(93.299866%, 16.337585%, 13.299561%)" offset="0.722656"/><stop stop-opacity="1" stop-color="rgb(93.299866%, 15.896606%, 13.299561%)" offset="0.726562"/><stop stop-opacity="1" stop-color="rgb(93.299866%, 15.457153%, 13.299561%)" offset="0.730469"/><stop stop-opacity="1" stop-color="rgb(93.299866%, 15.066528%, 13.299561%)" offset="0.734375"/><stop stop-opacity="1" stop-color="rgb(93.299866%, 14.675903%, 13.308716%)" offset="0.738281"/><stop stop-opacity="1" stop-color="rgb(93.299866%, 14.285278%, 13.508606%)" offset="0.742188"/><stop stop-opacity="1" stop-color="rgb(93.299866%, 13.894653%, 13.699341%)" offset="0.746094"/><stop stop-opacity="1" stop-color="rgb(93.299866%, 13.504028%, 13.699341%)" offset="0.75"/><stop stop-opacity="1" stop-color="rgb(93.109131%, 13.113403%, 13.699341%)" offset="0.753906"/><stop stop-opacity="1" stop-color="rgb(92.907715%, 12.722778%, 13.699341%)" offset="0.757812"/><stop stop-opacity="1" stop-color="rgb(92.89856%, 12.513733%, 13.699341%)" offset="0.761719"/><stop stop-opacity="1" stop-color="rgb(92.89856%, 12.5%, 13.699341%)" offset="1"/></radialGradient><clipPath id="id10"><path d="M 127 238 L 256 238 L 256 281.445312 L 127 281.445312 Z M 127 238 " clip-rule="nonzero"/></clipPath><clipPath id="id11"><path d="M 100.914062 111.195312 L 217 111.195312 L 217 253 L 100.914062 253 Z M 100.914062 111.195312 " clip-rule="nonzero"/></clipPath></defs><g clip-path="url(#id1)"><path fill="rgb(99.21875%, 91.369629%, 92.158508%)" d="M 136.199219 269.5625 C 133.757812 269.5625 131.347656 268.90625 129.195312 267.625 C 126.042969 265.746094 123.808594 262.753906 122.90625 259.199219 L 107.363281 197.988281 C 106.460938 194.433594 106.996094 190.738281 108.878906 187.585938 C 110.757812 184.433594 113.75 182.203125 117.304688 181.300781 L 119.066406 180.851562 C 126.410156 178.988281 133.902344 183.449219 135.765625 190.789062 L 151.304688 252.003906 C 152.203125 255.5625 151.667969 259.253906 149.789062 262.40625 C 147.910156 265.558594 144.917969 267.792969 141.359375 268.691406 L 139.601562 269.140625 C 138.472656 269.421875 137.332031 269.5625 136.199219 269.5625 Z M 122.445312 185.550781 C 121.742188 185.550781 121.03125 185.636719 120.324219 185.816406 L 118.566406 186.265625 C 116.335938 186.832031 114.457031 188.230469 113.28125 190.207031 C 112.101562 192.183594 111.765625 194.503906 112.332031 196.734375 L 127.871094 257.949219 C 128.4375 260.175781 129.835938 262.054688 131.816406 263.230469 C 133.792969 264.40625 136.109375 264.742188 138.34375 264.179688 L 140.105469 263.730469 C 142.335938 263.164062 144.214844 261.765625 145.390625 259.789062 C 146.566406 257.8125 146.902344 255.492188 146.339844 253.261719 L 130.800781 192.046875 C 129.808594 188.152344 126.289062 185.550781 122.445312 185.550781 Z M 122.445312 185.550781 " fill-opacity="1" fill-rule="nonzero"/></g><path fill="rgb(99.21875%, 91.369629%, 92.158508%)" d="M 120.132812 262.117188 C 111.699219 262.117188 103.996094 256.421875 101.828125 247.886719 L 94.234375 217.972656 C 92.992188 213.089844 93.730469 208.015625 96.3125 203.679688 C 98.890625 199.351562 103.003906 196.28125 107.894531 195.042969 L 109.175781 194.71875 C 110.550781 194.371094 111.945312 195.199219 112.289062 196.570312 L 127.90625 258.097656 C 128.253906 259.464844 127.425781 260.859375 126.054688 261.207031 L 124.769531 261.535156 C 123.21875 261.929688 121.660156 262.117188 120.132812 262.117188 Z M 107.964844 200.367188 C 104.925781 201.429688 102.378906 203.503906 100.710938 206.304688 C 98.832031 209.457031 98.296875 213.15625 99.199219 216.714844 L 106.789062 246.628906 C 108.550781 253.574219 115.34375 257.9375 122.292969 256.824219 Z M 107.964844 200.367188 " fill-opacity="1" fill-rule="nonzero"/><g clip-path="url(#id2)"><path fill="rgb(99.21875%, 91.369629%, 92.158508%)" d="M 238.761719 269.558594 C 237.644531 269.558594 236.511719 269.421875 235.382812 269.136719 L 233.625 268.6875 C 230.066406 267.789062 227.070312 265.554688 225.195312 262.402344 C 223.316406 259.25 222.777344 255.558594 223.679688 252 L 239.21875 190.785156 C 240.121094 187.230469 242.355469 184.238281 245.507812 182.363281 C 248.664062 180.488281 252.359375 179.949219 255.917969 180.851562 L 257.679688 181.300781 C 261.234375 182.203125 264.230469 184.433594 266.105469 187.585938 C 267.984375 190.738281 268.523438 194.433594 267.621094 197.988281 L 252.082031 259.203125 C 250.507812 265.410156 244.902344 269.558594 238.761719 269.558594 Z M 252.527344 185.546875 C 250.996094 185.546875 249.484375 185.960938 248.132812 186.761719 C 246.15625 187.941406 244.753906 189.816406 244.1875 192.046875 L 228.648438 253.257812 C 228.082031 255.488281 228.417969 257.808594 229.597656 259.785156 C 230.777344 261.761719 232.652344 263.160156 234.882812 263.726562 L 236.644531 264.175781 C 241.25 265.34375 245.945312 262.546875 247.113281 257.945312 L 262.652344 196.730469 C 263.21875 194.5 262.882812 192.183594 261.703125 190.203125 C 260.523438 188.226562 258.648438 186.828125 256.417969 186.261719 L 254.660156 185.8125 C 253.953125 185.636719 253.238281 185.546875 252.527344 185.546875 Z M 252.527344 185.546875 " fill-opacity="1" fill-rule="nonzero"/></g><g clip-path="url(#id3)"><path fill="rgb(99.21875%, 91.369629%, 92.158508%)" d="M 254.855469 262.117188 C 253.324219 262.117188 251.769531 261.929688 250.21875 261.535156 L 248.933594 261.207031 C 247.5625 260.859375 246.730469 259.464844 247.082031 258.097656 L 262.699219 196.574219 C 263.046875 195.203125 264.441406 194.375 265.808594 194.722656 L 267.09375 195.046875 C 271.984375 196.285156 276.097656 199.351562 278.675781 203.683594 C 281.253906 208.015625 281.992188 213.09375 280.753906 217.976562 L 273.164062 247.890625 C 270.992188 256.421875 263.289062 262.117188 254.855469 262.117188 Z M 252.6875 256.820312 C 259.632812 257.9375 266.429688 253.570312 268.191406 246.625 L 275.78125 216.710938 C 277.546875 209.765625 273.652344 202.691406 267.015625 200.363281 Z M 252.6875 256.820312 " fill-opacity="1" fill-rule="nonzero"/></g><g clip-path="url(#id4)"><path fill="rgb(99.21875%, 91.369629%, 92.158508%)" d="M 265.179688 199.761719 C 263.761719 199.761719 262.617188 198.613281 262.617188 197.199219 L 262.617188 173.71875 C 262.617188 153.667969 254.800781 134.8125 240.613281 120.632812 C 226.425781 106.453125 207.558594 98.644531 187.492188 98.644531 C 167.429688 98.644531 148.558594 106.453125 134.371094 120.632812 C 120.183594 134.8125 112.367188 153.667969 112.367188 173.71875 L 112.367188 197.199219 C 112.367188 198.613281 111.222656 199.761719 109.804688 199.761719 C 108.390625 199.761719 107.242188 198.613281 107.242188 197.199219 L 107.242188 173.71875 C 107.242188 152.296875 115.589844 132.15625 130.75 117.007812 C 145.90625 101.863281 166.058594 93.523438 187.492188 93.523438 C 208.929688 93.523438 229.082031 101.863281 244.238281 117.011719 C 259.394531 132.160156 267.742188 152.300781 267.742188 173.722656 L 267.742188 197.203125 C 267.738281 198.613281 266.59375 199.761719 265.179688 199.761719 Z M 265.179688 199.761719 " fill-opacity="1" fill-rule="nonzero"/></g><path fill="rgb(99.21875%, 91.369629%, 92.158508%)" d="M 122.226562 185.167969 C 120.8125 185.167969 119.664062 184.019531 119.664062 182.609375 L 119.664062 173.046875 C 119.664062 135.664062 150.089844 105.257812 187.492188 105.257812 C 188.90625 105.257812 190.054688 106.402344 190.054688 107.816406 C 190.054688 109.230469 188.90625 110.378906 187.492188 110.378906 C 152.917969 110.378906 124.789062 138.492188 124.789062 173.046875 L 124.789062 182.609375 C 124.789062 184.019531 123.640625 185.167969 122.226562 185.167969 Z M 122.226562 185.167969 " fill-opacity="1" fill-rule="nonzero"/><path fill="rgb(99.21875%, 91.369629%, 92.158508%)" d="M 252.761719 185.167969 C 251.347656 185.167969 250.199219 184.019531 250.199219 182.609375 L 250.199219 173.046875 C 250.199219 138.488281 222.070312 110.378906 187.492188 110.378906 C 186.078125 110.378906 184.929688 109.230469 184.929688 107.816406 C 184.929688 106.402344 186.078125 105.257812 187.492188 105.257812 C 224.898438 105.257812 255.324219 135.664062 255.324219 173.046875 L 255.324219 182.609375 C 255.324219 184.019531 254.175781 185.167969 252.761719 185.167969 Z M 252.761719 185.167969 " fill-opacity="1" fill-rule="nonzero"/><g clip-path="url(#id5)"><g clip-path="url(#id6)"><g clip-path="url(#id7)"><g clip-path="url(#id8)"><path fill="url(#id9)" d="M 250.785156 287.65625 L 297.773438 145.128906 L 132.226562 90.808594 L 85.238281 233.335938 Z M 250.785156 287.65625 " fill-rule="nonzero"/></g></g></g></g><path fill="rgb(31.759644%, 67.83905%, 89.7995%)" d="M 128.109375 245.351562 C 128.167969 245.453125 128.226562 245.550781 128.285156 245.652344 C 128.226562 245.550781 128.167969 245.453125 128.109375 245.351562 " fill-opacity="1" fill-rule="nonzero"/><path fill="rgb(31.759644%, 67.83905%, 89.7995%)" d="M 129.023438 246.851562 C 129.039062 246.878906 129.058594 246.90625 129.074219 246.933594 C 129.058594 246.90625 129.039062 246.878906 129.023438 246.851562 " fill-opacity="1" fill-rule="nonzero"/><path fill="rgb(31.759644%, 67.83905%, 89.7995%)" d="M 235.546875 215.007812 C 221.542969 213.871094 206.769531 213.265625 191.503906 213.265625 C 178.363281 213.265625 165.585938 213.714844 153.347656 214.5625 C 141.160156 215.410156 129.507812 216.652344 118.566406 218.238281 C 119.871094 227.503906 122.910156 236.214844 127.34375 244.035156 C 145.8125 244.324219 167.382812 241.980469 191.179688 241.980469 C 214.972656 241.980469 236.699219 245.300781 255.667969 244.035156 C 260.101562 236.214844 263.140625 227.503906 264.445312 218.238281 C 255.277344 216.910156 245.609375 215.820312 235.546875 215.007812 " fill-opacity="1" fill-rule="nonzero"/><g clip-path="url(#id10)"><path fill="rgb(98.81897%, 86.268616%, 56.469727%)" d="M 255.667969 244.035156 C 243.027344 266.347656 219.027344 281.40625 191.503906 281.40625 C 163.980469 281.40625 139.984375 266.347656 127.34375 244.035156 C 145.617188 240.441406 167.710938 238.339844 191.503906 238.339844 C 215.300781 238.339844 237.390625 240.441406 255.667969 244.035156 " fill-opacity="1" fill-rule="nonzero"/></g><path fill="rgb(70.199585%, 89.7995%, 88.238525%)" d="M 226.835938 219 C 230.132812 219.980469 208.644531 220.238281 203.539062 221.347656 C 200.101562 222.097656 228.535156 223.238281 216.820312 223.84375 C 186.191406 225.433594 217.601562 225.972656 210.511719 226.984375 C 207.175781 227.464844 196.757812 227.101562 199.335938 229.402344 C 200.261719 230.226562 200.273438 230.804688 199.664062 231.238281 C 198.828125 231.84375 197.675781 231.546875 197.09375 230.695312 C 195.988281 229.070312 187.242188 227.871094 184.011719 227.699219 C 179.738281 227.472656 178.847656 227.03125 182.355469 226.214844 C 194.226562 223.453125 183.539062 223.664062 170.742188 222.847656 C 144.191406 221.15625 211.042969 220.378906 158.542969 219.507812 C 152.332031 219.402344 147.332031 218.921875 162.539062 217.265625 C 173.601562 216.0625 161.441406 215.246094 153.347656 214.5625 C 165.585938 213.714844 178.363281 213.265625 191.503906 213.265625 C 206.769531 213.265625 221.542969 213.871094 235.546875 215.007812 C 235.523438 215.027344 235.488281 215.046875 235.4375 215.066406 C 233.25 216.007812 217.449219 216.296875 214.371094 217.152344 C 211.933594 217.832031 222.664062 217.769531 226.835938 219 " fill-opacity="1" fill-rule="nonzero"/><path fill="rgb(11.369324%, 19.999695%, 23.139954%)" d="M 188.792969 198.535156 C 188.148438 197.558594 186.6875 197.640625 186.164062 198.683594 C 176.945312 199.59375 168.972656 204.367188 163.78125 211.289062 C 164.378906 211.335938 164.949219 211.46875 165.484375 211.683594 C 166.589844 212.128906 167.84375 212.113281 168.882812 211.527344 C 169.625 211.109375 170.46875 210.851562 171.378906 210.796875 C 172.285156 210.746094 173.15625 210.90625 173.941406 211.238281 C 175.011719 211.683594 176.246094 211.613281 177.257812 211.042969 C 178 210.628906 178.84375 210.367188 179.753906 210.316406 C 180.621094 210.265625 181.460938 210.410156 182.21875 210.714844 C 183.375 211.175781 184.667969 211.070312 185.765625 210.488281 C 186.289062 210.214844 186.863281 210.015625 187.46875 209.910156 L 189.445312 244.0625 L 190.757812 243.988281 L 188.785156 209.835938 C 189.402344 209.871094 189.992188 210 190.542969 210.214844 C 191.703125 210.664062 193 210.625 194.09375 210.03125 C 194.816406 209.644531 195.628906 209.402344 196.5 209.355469 C 197.40625 209.300781 198.277344 209.460938 199.0625 209.789062 C 200.132812 210.238281 201.367188 210.167969 202.378906 209.601562 C 203.121094 209.183594 203.964844 208.925781 204.875 208.871094 C 205.78125 208.820312 206.652344 208.980469 207.4375 209.308594 C 208.535156 209.773438 209.785156 209.644531 210.832031 209.078125 C 211.335938 208.804688 211.890625 208.601562 212.476562 208.488281 C 206.519531 202.207031 198.050781 198.378906 188.792969 198.535156 " fill-opacity="1" fill-rule="nonzero"/><path fill="rgb(11.369324%, 19.999695%, 23.139954%)" d="M 208.472656 237.90625 C 206.660156 238.144531 204.980469 236.917969 204.652344 235.125 L 207.308594 234.882812 L 209.875 237.722656 Z M 203.929688 231.144531 L 206.617188 234.117188 L 204.503906 234.308594 Z M 199.644531 240.410156 L 195.664062 238.3125 L 198.59375 234.210938 C 199.171875 235.800781 199.867188 237.332031 200.695312 238.5625 Z M 214.054688 237.175781 L 211.238281 237.542969 L 208.71875 234.753906 L 210.367188 234.605469 C 210.582031 234.585938 210.765625 234.414062 210.765625 234.195312 C 210.769531 233.949219 210.558594 233.757812 210.316406 233.78125 L 208.027344 233.988281 L 203.546875 229.03125 L 203.015625 226.121094 L 202.460938 226.019531 L 202.359375 225.332031 C 202.332031 225.117188 202.148438 224.945312 201.933594 224.953125 C 201.683594 224.964844 201.503906 225.1875 201.539062 225.425781 L 201.601562 225.863281 L 197.867188 225.179688 L 197.730469 224.242188 C 197.699219 224.03125 197.515625 223.859375 197.300781 223.867188 C 197.050781 223.878906 196.875 224.101562 196.910156 224.339844 L 197.007812 225.023438 L 196.324219 224.898438 C 196.324219 224.898438 196.867188 228.859375 198.148438 232.890625 L 194.652344 237.777344 L 194.601562 237.753906 L 194.40625 238.117188 L 191.503906 242.175781 C 192.015625 242.539062 192.722656 242.421875 193.085938 241.914062 L 195.175781 238.988281 L 199.238281 241.128906 L 197.941406 243.40625 C 198.488281 243.714844 199.179688 243.523438 199.488281 242.980469 L 200.242188 241.65625 L 200.253906 241.664062 L 200.445312 241.296875 L 201.445312 239.539062 C 202.277344 240.492188 203.226562 241.128906 204.296875 241.261719 L 205.453125 243.550781 C 205.734375 244.109375 206.414062 244.332031 206.972656 244.050781 L 205.570312 241.269531 C 206.925781 241.191406 208.125 240.910156 209.164062 240.527344 L 212.328125 243.984375 C 212.75 244.445312 213.46875 244.480469 213.929688 244.058594 L 210.265625 240.054688 C 212.765625 238.839844 214.054688 237.175781 214.054688 237.175781 " fill-opacity="1" fill-rule="nonzero"/><g clip-path="url(#id11)"><path fill="rgb(11.369324%, 19.999695%, 23.139954%)" d="M 167.941406 157.59375 C 167.941406 157.59375 168.246094 157.597656 168.78125 157.683594 C 168.503906 157.652344 168.222656 157.617188 167.941406 157.59375 Z M 143.667969 164.078125 C 143.707031 164.035156 143.738281 164.003906 143.765625 163.984375 C 143.730469 164.015625 143.699219 164.050781 143.667969 164.078125 Z M 177.171875 158.972656 C 178.015625 158.925781 178.851562 158.828125 179.679688 158.664062 C 179.777344 158.640625 179.878906 158.621094 179.980469 158.601562 C 178.632812 157.375 178.148438 155.894531 175.996094 154.933594 C 175.996094 154.933594 177.351562 154.960938 179.300781 155.660156 C 182.792969 156.914062 186.527344 157.355469 190.203125 156.855469 L 190.492188 156.816406 C 189.058594 155.386719 187.117188 153.886719 184.585938 152.757812 C 184.585938 152.757812 186.574219 152.738281 189.078125 153.546875 C 194.128906 155.167969 199.460938 155.730469 204.757812 155.347656 C 204.957031 155.332031 205.144531 155.320312 205.324219 155.304688 C 201.625 152.78125 196.53125 149.800781 193.972656 148.664062 C 194.128906 148.695312 199.203125 149.757812 205.234375 151.492188 C 209.039062 152.59375 213.226562 153.953125 216.804688 155.496094 C 216.804688 155.496094 211.273438 149.992188 202.570312 146.472656 C 193.679688 142.875 181.472656 141.351562 168.464844 149.886719 C 170.597656 146.492188 174.734375 143.371094 177.546875 139.867188 C 174.148438 139.625 171.136719 140.007812 171.136719 140.007812 C 172.121094 139.335938 177.671875 137.132812 181.09375 135.15625 C 181.988281 134.640625 182.738281 134.140625 183.222656 133.683594 C 183.351562 133.566406 183.480469 133.445312 183.613281 133.324219 C 179.746094 132.875 175.972656 133.351562 175.972656 133.351562 C 177.03125 132.628906 182.371094 130.503906 187.714844 128.507812 C 192.617188 126.671875 197.53125 124.945312 199.140625 124.515625 C 199.140625 124.515625 190.203125 122.066406 182.300781 122.726562 C 181.664062 122.785156 181.035156 122.851562 180.425781 122.945312 C 167.296875 124.832031 160.679688 134.453125 157.773438 142.570312 C 157.253906 144.023438 156.851562 145.425781 156.554688 146.730469 C 156.671875 145.472656 156.746094 144.261719 156.789062 143.089844 C 157.644531 117.539062 140.480469 112.464844 131.527344 111.558594 C 128.398438 111.238281 126.269531 111.425781 126.269531 111.425781 C 126.777344 111.648438 127.292969 111.886719 127.8125 112.136719 C 134.957031 115.566406 142.824219 121.117188 143.082031 121.304688 C 140.972656 120.40625 136.347656 119.011719 132.773438 118.199219 C 132.875 118.324219 132.980469 118.457031 133.089844 118.597656 C 135.785156 121.964844 139.074219 124.835938 142.84375 126.9375 C 144.738281 127.996094 145.839844 129.210938 145.839844 129.210938 C 143.753906 128.320312 141.773438 127.996094 140.113281 127.929688 C 140.210938 128.0625 140.300781 128.199219 140.394531 128.335938 C 142.066406 130.726562 144.335938 132.625 146.941406 133.945312 C 148.460938 134.714844 149.257812 135.515625 149.308594 135.570312 C 147.535156 134.8125 146.375 135.347656 144.886719 135.222656 L 144.929688 135.296875 C 146.28125 137.484375 148.179688 139.28125 150.410156 140.570312 C 151.554688 141.230469 152.152344 141.835938 152.1875 141.875 C 150.730469 141.257812 149.332031 140.910156 148.050781 140.734375 C 148.191406 140.992188 148.328125 141.25 148.464844 141.5 C 128.140625 121.03125 100.914062 138.433594 100.914062 138.433594 C 105.34375 138.746094 109.09375 139.511719 112.863281 140.773438 C 116.417969 141.964844 120.214844 142.261719 123.894531 141.53125 C 126.132812 141.089844 128.0625 140.859375 128.183594 140.84375 C 126.496094 141.640625 122.851562 143.46875 121.601562 144.394531 L 121.691406 144.4375 C 124.890625 145.957031 128.488281 146.402344 131.972656 145.753906 C 134.292969 145.324219 136.335938 145.140625 136.464844 145.128906 C 134.691406 145.96875 130.9375 147.652344 129.644531 148.632812 L 129.714844 148.675781 C 132.277344 150.144531 135.148438 150.964844 138.078125 151.066406 C 114.203125 153.464844 107.582031 178.957031 107.582031 178.957031 C 119.679688 168.804688 125.980469 164.511719 125.980469 164.511719 C 125.125 166.164062 123.542969 169.925781 123.113281 171.421875 L 123.1875 171.40625 C 126.210938 168.132812 129.609375 165.894531 132.035156 164.546875 C 133.992188 163.464844 135.320312 162.957031 135.320312 162.957031 C 134.421875 164.691406 132.515625 168.359375 132.085938 169.917969 C 132.117188 169.914062 132.152344 169.910156 132.1875 169.90625 C 136.480469 169.347656 140.449219 167.359375 143.476562 164.277344 C 123.230469 185.339844 137.921875 204.996094 137.921875 204.996094 C 136.863281 196.5 137.785156 184.945312 137.785156 184.945312 C 138.101562 187.277344 139.3125 192.101562 140.484375 195.683594 C 140.496094 195.660156 140.503906 195.640625 140.511719 195.617188 C 142.136719 191.191406 142.90625 186.515625 142.894531 181.804688 C 142.890625 179.777344 143.332031 178.347656 143.332031 178.347656 C 143.644531 180.65625 144.402344 182.574219 145.222656 184.074219 C 145.238281 184.035156 145.25 184 145.265625 183.964844 C 146.566406 181.066406 147.117188 177.902344 146.929688 174.730469 C 146.832031 173.011719 147.128906 171.925781 147.128906 171.925781 C 147.394531 173.894531 148.480469 174.632812 149.15625 176.011719 L 149.183594 175.957031 C 150.410156 173.605469 152.226562 167.332031 152.390625 167.296875 C 152.621094 168.289062 152.582031 169.949219 152.691406 169.773438 C 156.960938 200.367188 139.730469 227.382812 126.71875 242.910156 C 126.921875 243.289062 127.128906 243.664062 127.34375 244.035156 C 129.097656 247.136719 131.074219 250.097656 133.25 252.898438 C 160.695312 213.199219 159.582031 182.550781 157.027344 169.007812 C 157.027344 169.007812 160.488281 169.414062 162.664062 176.144531 C 163.585938 174.480469 165.320312 170.5625 165.246094 171.292969 C 164.792969 175.660156 165.839844 180.042969 168.132812 183.792969 C 168.144531 183.816406 168.15625 183.835938 168.171875 183.859375 C 169.007812 182.289062 169.839844 180.445312 170.605469 178.285156 C 170.605469 178.285156 170.578125 178.886719 170.464844 179.878906 C 170.011719 183.730469 168.8125 188.378906 170.09375 192.035156 C 170.121094 192.035156 173.492188 187.847656 174.273438 185.640625 C 174.273438 185.640625 174.113281 189.6875 172.601562 194.128906 C 173.214844 196.652344 173.492188 199.300781 173.292969 202.078125 C 173.292969 202.078125 184.976562 181.695312 169.765625 167.394531 C 170.976562 167.953125 172.246094 168.558594 173.5625 169.214844 C 173.292969 167.660156 172.8125 165.96875 171.996094 164.21875 C 172.046875 164.265625 172.847656 165.007812 173.730469 166.4375 C 175.359375 169.089844 177.664062 171.265625 180.371094 172.808594 L 180.433594 172.84375 C 180.21875 171.035156 180.824219 169.605469 179.828125 167.472656 C 179.886719 167.527344 180.855469 168.417969 181.828125 170.140625 C 183.683594 173.417969 186.265625 176.222656 189.425781 178.277344 C 189.464844 178.304688 189.507812 178.332031 189.550781 178.359375 C 189.40625 176.34375 188.921875 173.941406 187.75 171.4375 C 187.75 171.4375 189.101562 172.582031 190.40625 174.605469 C 193.429688 179.308594 197.210938 183.488281 201.683594 186.855469 C 201.703125 186.871094 201.726562 186.890625 201.75 186.910156 C 200.613281 182.585938 198.714844 177 197.535156 174.46875 C 197.660156 174.636719 205.921875 185.476562 210.304688 194.550781 C 210.304688 194.550781 215.074219 166.707031 177.171875 158.972656 " fill-opacity="1" fill-rule="nonzero"/></g></svg>